<svg data-v-fde0c5aa="" xmlns="http://www.w3.org/2000/svg" viewBox="0 0 300 300" class="font"><!----><defs data-v-fde0c5aa=""><!----></defs><rect data-v-fde0c5aa="" fill="#65A8E8" x="0" y="0" width="300px" height="300px" class="logo-background-square"></rect><defs data-v-fde0c5aa=""><!----></defs><g data-v-fde0c5aa="" id="13b55887-6ec8-4dbb-9c2b-6c4ed3eabfe4" fill="#225998" transform="matrix(4.100652551456642,0,0,4.100652551456642,38.52376502281529,128.3485536679578)"><path d="M0.36 0L0.36 1.16L1.12 1.16L1.12 8.88L2.63 10.56L4.61 10.56L6.10 8.88L6.10 0L4.83 0L4.83 8.40L4.03 9.28L3.19 9.28L2.39 8.40L2.39 0ZM0.90 0.50L1.82 0.50L1.82 8.61L2.94 9.86L4.28 9.86L5.40 8.61L5.40 0.52L5.53 0.52L5.53 8.67L4.34 9.98L2.88 9.98L1.69 8.67L1.69 0.63L0.90 0.63ZM12.03 3.50L13.30 3.50L13.30 1.60L11.75 0.04L9.62 0.04L8.06 1.60L8.06 8.86L9.60 10.50L11.76 10.50L13.30 8.86L13.30 4.80L10.61 4.80L10.61 6.06L12.03 6.06L12.03 8.36L11.17 9.28L10.19 9.28L9.34 8.36L9.34 2.11L10.18 1.26L11.19 1.26L12.03 2.11ZM12.60 2.97L12.60 1.88L11.41 0.70L9.94 0.70L8.76 1.88L8.76 8.58L9.95 9.86L11.41 9.86L12.60 8.58L12.60 5.49L11.14 5.49L11.14 5.36L12.73 5.36L12.73 8.64L11.47 9.98L9.90 9.98L8.64 8.64L8.64 1.82L9.90 0.57L11.47 0.57L12.73 1.82L12.73 2.97ZM15.19 0.01L15.19 10.50L19.52 10.50L19.52 9.28L16.46 9.28L16.46 0.01ZM15.76 0.59L15.89 0.59L15.89 9.86L18.94 9.86L18.94 9.98L15.76 9.98ZM22.71 6.61L25.12 0L23.77 0L22.08 4.79L20.40 0L19.03 0L21.43 6.61L21.43 10.50L22.71 10.50ZM22.13 5.61L22.13 9.97L22.01 9.97L22.01 5.61L21.69 5.61L19.85 0.52L19.99 0.52L21.77 5.49L22.37 5.49L24.18 0.53L24.32 0.53L22.47 5.61ZM30.27 9.80L32.62 9.80L33.77 8.64L33.77 6.50L32.54 5.26L30.27 5.26ZM28.81 1.33C29.06 1.33 29.30 1.33 29.55 1.33C29.55 4.38 29.55 7.45 29.55 10.50L32.91 10.50L34.48 8.93L34.48 6.13L33.43 5.10L34.20 4.17L34.20 1.61L32.63 0.03L28.81 0.03ZM30.84 4.55L30.84 1.33L32.10 1.33L32.91 2.14L32.91 3.67L32.17 4.55ZM32.34 0.74C31.35 0.74 30.34 0.74 29.34 0.74L29.34 0.62L32.40 0.62L33.63 1.85L33.63 3.95L32.65 5.19L33.91 6.44L33.91 8.69L32.68 9.93L30.14 9.93L30.14 1.33L30.27 1.33L30.27 5.14L32.52 5.14L33.50 3.91L33.50 1.90ZM30.84 5.84L32.30 5.84L33.19 6.72L33.19 8.40L32.38 9.21L30.84 9.21ZM37.73 4.68L37.73 1.29L40.75 1.29L40.75 0.01C39.06 0.01 38.15 0.01 36.46 0.01L36.46 10.50L40.95 10.50L40.95 9.23L37.73 9.23L37.73 5.95L40.26 5.95L40.26 4.68ZM40.18 0.59L40.18 0.71L37.16 0.71L37.16 5.24L39.73 5.24L39.73 5.38L37.16 5.38L37.16 9.80L40.38 9.80L40.38 9.93L37.03 9.93L37.03 0.59ZM41.66 10.50L42.95 10.50L43.36 7.77L45.54 7.77L45.95 10.50L47.24 10.50L45.68 0.01L43.22 0.01ZM45.36 6.50L43.54 6.50L44.31 1.29L44.58 1.29ZM45.18 0.59L46.58 9.97L46.45 9.97L46.03 7.20L42.85 7.20L42.45 9.97L42.32 9.97C42.74 7.07 43.29 3.47 43.72 0.59ZM43.82 0.71L42.88 7.07L46.02 7.07L45.08 0.71ZM49.87 1.30L51.16 1.30L52.01 2.16L52.01 4.76L51.14 5.70L49.87 5.70ZM49.87 6.97L50.97 6.97L52.61 10.50L54.01 10.50L52.15 6.48L53.28 5.26L53.28 1.64L51.67 0.01L48.59 0.01L48.59 10.50L49.87 10.50ZM49.17 0.59L51.44 0.59L52.71 1.88L52.71 5.04L51.46 6.37L53.13 9.97L52.99 9.97L51.34 6.40L49.29 6.40L49.29 9.97L49.17 9.97ZM51.38 0.73L49.29 0.73L49.29 6.27L51.38 6.27L52.58 4.98L52.58 1.92Z"></path></g><!----><!----></svg>